# File created by Blade
# Date/Time:  Thu Sep 25 18:39:44 2014
# Frame Rate: 120.000 fps
#------------------------------------------------------
:FULLY-SPECIFIED
:DEGREES
816
root -1.013439 33.114989 -2.156641 6.510264 6.983174 -1.005120
Spine -12.569397 4.400155 -1.413967
Head 13.838904 -11.647985 8.583889
LeftShoulder -12.323700 -6.096626 48.205661
LeftArm 103.329437 -69.345085 -88.850647
LeftForeArm -13.774404 -0.000000 91.417423
LeftHand -25.692634 -0.000000 0.081474
LeftHandThumb1 -26.253704 0.000000 33.147579
RightShoulder -43.093889 47.922925 -84.567378
RightArm 34.271958 46.777508 56.379454
RightForeArm 31.393382 -0.000000 130.772995
RightHand 4.211405 -0.000000 -0.552387
RightHandThumb1 -24.326973 -0.000000 -32.862282
LeftUpLeg 0.101408 3.641840 2.680402
LeftLeg -1.179305 -0.000000 0.000000
LeftFoot -8.488584 0.798048 -10.784820
LeftToeBase 9.880771 -0.000000 -0.000000
RightUpLeg 0.025894 -8.352833 0.779143
RightLeg 1.127762 -0.000000 -0.000000
RightFoot -7.625110 -3.381341 0.970731
RightToeBase -0.767866 -0.000000 0.000000
817
root -1.007890 33.115864 -2.161588 6.562485 6.987300 -0.970882
Spine -12.551301 4.360880 -1.410824
Head 13.697385 -11.582459 8.665365
LeftShoulder -12.438386 -6.158713 48.224452
LeftArm 102.398074 -69.645711 -88.762730
LeftForeArm -12.960581 0.000000 90.266330
LeftHand -26.107658 0.000000 0.936938
LeftHandThumb1 -26.253704 0.000000 33.147579
RightShoulder -41.407298 46.808005 -82.269082
RightArm 34.523132 48.351672 56.105653
RightForeArm 29.647073 -0.000000 129.164766
RightHand 3.546640 -0.000000 -1.268000
RightHandThumb1 -24.326973 -0.000000 -32.862282
LeftUpLeg 0.045528 3.669285 2.628900
LeftLeg -1.176240 -0.000000 0.000000
LeftFoot -8.470870 0.791828 -10.822795
LeftToeBase 9.876451 -0.000000 -0.000000
RightUpLeg -0.011892 -8.384810 0.744143
RightLeg 1.091531 -0.000000 -0.000000
RightFoot -7.603307 -3.370824 0.942706
RightToeBase -0.854758 -0.000000 0.000000
818
root -1.003454 33.117113 -2.166871 6.610534 6.998464 -0.935077
Spine -12.529097 4.317819 -1.381553
Head 13.580694 -11.465045 8.667804
LeftShoulder -12.490301 -6.146872 48.111028
LeftArm 101.922368 -69.971626 -89.029762
LeftForeArm -12.111665 0.000000 89.083075
LeftHand -26.351934 -0.000000 1.180830
LeftHandThumb1 -26.253704 0.000000 33.147579
RightShoulder -39.640291 45.486254 -79.777997
RightArm 35.318069 49.896476 56.162759
RightForeArm 27.553377 -0.000000 127.527626
RightHand 2.753299 -0.000000 -2.252939
RightHandThumb1 -24.326973 -0.000000 -32.862282
LeftUpLeg -0.005019 3.717261 2.584376
LeftLeg -1.186943 -0.000000 0.000000
LeftFoot -8.419749 0.731334 -10.779055
LeftToeBase 9.885210 -0.000000 -0.000000
RightUpLeg -0.051447 -8.396969 0.709860
RightLeg 1.063248 -0.000000 -0.000000
RightFoot -7.601289 -3.403707 0.910087
RightToeBase -0.781701 -0.000000 0.000000
819
root -0.999154 33.119101 -2.171808 6.656214 7.018772 -0.906859
Spine -12.522448 4.275449 -1.324219
Head 13.501098 -11.389553 8.494173
LeftShoulder -12.474289 -6.141727 47.940877
LeftArm 101.481406 -70.313345 -89.302024
LeftForeArm -11.412187 -0.000000 87.936681
LeftHand -26.363406 -0.000000 0.772412
LeftHandThumb1 -26.253704 0.000000 33.147579
RightShoulder -38.235623 44.359503 -77.665030
RightArm 35.964238 51.037058 56.124179
RightForeArm 25.362830 -0.000000 125.782054
RightHand 2.254740 -0.000000 -3.481081
RightHandThumb1 -24.326973 -0.000000 -32.862282
LeftUpLeg -0.056347 3.792716 2.548342
LeftLeg -1.194193 -0.000000 0.000000
LeftFoot -8.354978 0.638367 -10.779868
LeftToeBase 9.879384 -0.000000 -0.000000
RightUpLeg -0.089202 -8.412437 0.686423
RightLeg 1.042186 -0.000000 -0.000000
RightFoot -7.575134 -3.412541 0.909390
RightToeBase -0.822086 -0.000000 0.000000
820
root -0.994147 33.120914 -2.175967 6.684310 7.036783 -0.876315
Spine -12.512035 4.234022 -1.267319
Head 13.430620 -11.314805 8.312521
LeftShoulder -12.418433 -6.313049 47.862358
LeftArm 100.456122 -70.682940 -89.119428
LeftForeArm -11.033790 -0.000000 86.887433
LeftHand -26.432697 -0.000000 0.407040
LeftHandThumb1 -26.253704 0.000000 33.147579
RightShoulder -36.819244 43.249865 -75.453909
RightArm 36.860516 52.095802 56.071088
RightForeArm 23.550462 -0.000000 123.959669
RightHand 1.688394 -0.000000 -4.432161
RightHandThumb1 -24.326973 -0.000000 -32.862282
LeftUpLeg -0.078540 3.869655 2.512878
LeftLeg -1.229335 -0.000000 0.000000
LeftFoot -8.287887 0.518698 -10.738315
LeftToeBase 9.899495 -0.000000 -0.000000
RightUpLeg -0.093530 -8.366032 0.654292
RightLeg 0.991411 -0.000000 -0.000000
RightFoot -7.552035 -3.480325 0.920287
RightToeBase -0.827403 -0.000000 0.000000
821
root -0.987957 33.123351 -2.179534 6.710034 7.071330 -0.843254
Spine -12.501791 4.171160 -1.184428
Head 13.343584 -11.184310 8.140047
LeftShoulder -12.245403 -6.724108 47.738543
LeftArm 98.781646 -71.199640 -88.222051
LeftForeArm -11.346088 -0.000000 85.798045
LeftHand -26.272642 -0.000000 0.583218
LeftHandThumb1 -26.253704 0.000000 33.147579
RightShoulder -35.646348 42.224168 -73.606767
RightArm 37.634356 52.956318 56.121768
RightForeArm 22.254719 -0.000000 122.145163
RightHand 1.350140 -0.000000 -5.316684
RightHandThumb1 -24.326973 -0.000000 -32.862282
LeftUpLeg -0.096177 3.895247 2.467525
LeftLeg -1.254581 -0.000000 0.000000
LeftFoot -8.221572 0.469400 -10.789888
LeftToeBase 9.868568 -0.000000 -0.000000
RightUpLeg -0.108644 -8.373183 0.618368
RightLeg 0.974218 -0.000000 -0.000000
RightFoot -7.543019 -3.513903 0.947330
RightToeBase -0.797148 -0.000000 0.000000
822
root -0.983594 33.126564 -2.182443 6.714973 7.105701 -0.827396
Spine -12.474563 4.109690 -1.088777
Head 13.270839 -11.092287 7.938350
LeftShoulder -12.130278 -6.965510 47.571197
LeftArm 97.845878 -71.527570 -88.031193
LeftForeArm -11.587025 -0.000000 84.752181
LeftHand -26.136343 -0.000000 0.492792
LeftHandThumb1 -26.253704 0.000000 33.147579
RightShoulder -34.410636 41.149074 -71.678091
RightArm 38.614324 53.853471 56.189230
RightForeArm 21.198946 0.000000 120.343669
RightHand 0.936092 -0.000000 -6.124541
RightHandThumb1 -24.326973 -0.000000 -32.862282
LeftUpLeg -0.088407 3.908232 2.450131
LeftLeg -1.307814 -0.000000 0.000000
LeftFoot -8.142777 0.421666 -10.749686
LeftToeBase 9.889537 -0.000000 -0.000000
RightUpLeg -0.107356 -8.402041 0.602751
RightLeg 0.958342 -0.000000 -0.000000
RightFoot -7.504244 -3.533461 0.928968
RightToeBase -0.806708 -0.000000 0.000000
823
root -0.978453 33.129390 -2.185340 6.717110 7.142252 -0.805478
Spine -12.454776 4.032991 -1.001780
Head 13.164248 -10.943354 7.868531
LeftShoulder -12.046793 -7.283507 47.484843
LeftArm 96.728269 -71.758302 -87.758255
LeftForeArm -12.536102 -0.000000 83.780144
LeftHand -26.033642 0.000000 0.731954
LeftHandThumb1 -26.253704 0.000000 33.147579
RightShoulder -33.536116 40.390537 -70.302126
RightArm 39.246008 54.417129 56.293604
RightForeArm 20.637511 -0.000000 118.535181
RightHand 0.735454 0.000000 -6.601883
RightHandThumb1 -24.326973 -0.000000 -32.862282
LeftUpLeg -0.080609 3.931999 2.424189
LeftLeg -1.344205 -0.000000 0.000000
LeftFoot -8.082027 0.363217 -10.750340
LeftToeBase 9.934317 -0.000000 -0.000000
RightUpLeg -0.100354 -8.425967 0.576160
RightLeg 0.940042 -0.000000 -0.000000
RightFoot -7.475440 -3.555977 0.951151
RightToeBase -0.822534 -0.000000 0.000000
824
root -0.970559 33.132081 -2.186875 6.714688 7.167228 -0.774818
Spine -12.437446 3.985225 -0.915751
Head 13.071359 -10.806969 7.829445
LeftShoulder -11.964223 -7.467117 47.278051
LeftArm 96.232571 -71.889683 -87.904482
LeftForeArm -13.661081 -0.000000 82.760731
LeftHand -25.829158 0.000000 1.171125
LeftHandThumb1 -26.253704 0.000000 33.147579
RightShoulder -32.794885 39.734825 -69.213912
RightArm 39.618459 54.939088 56.327341
RightForeArm 20.749458 -0.000000 116.841495
RightHand 0.520805 -0.000000 -6.327570
RightHandThumb1 -24.326973 -0.000000 -32.862282
LeftUpLeg -0.059692 3.941335 2.378058
LeftLeg -1.381858 -0.000000 0.000000
LeftFoot -8.012836 0.344406 -10.790752
LeftToeBase 9.865335 -0.000000 -0.000000
RightUpLeg -0.083795 -8.448770 0.531374
RightLeg 0.920198 -0.000000 -0.000000
RightFoot -7.461184 -3.545025 1.001532
RightToeBase -0.814257 -0.000000 0.000000
